<?xml version="1.0" encoding="UTF-8" standalone="no"?>
<!DOCTYPE svg PUBLIC "-//W3C//DTD SVG 1.1//EN" "http://www.w3.org/Graphics/SVG/1.1/DTD/svg11.dtd">
<svg xmlns="http://www.w3.org/2000/svg" version="1.1" viewBox="0.00 0.00 1200.00 1200.00">
<g stroke-width="2.00" fill="none" stroke-linecap="butt">
<path stroke="#7d7d7d" vector-effect="non-scaling-stroke" d="   M 935.50 254.52   A 0.27 0.27 0.0 0 0 935.23 254.25   L 260.77 254.25   A 0.27 0.27 0.0 0 0 260.50 254.52   L 260.50 714.48   A 0.27 0.27 0.0 0 0 260.77 714.75   L 935.23 714.75   A 0.27 0.27 0.0 0 0 935.50 714.48   L 935.50 254.52"/>
<path stroke="#7d7d7d" vector-effect="non-scaling-stroke" d="   M 487.89 856.00   A 0.39 0.39 0.0 0 1 487.50 855.61   L 487.50 841.39   A 0.39 0.39 0.0 0 1 487.89 841.00   L 503.86 841.00   A 0.39 0.39 0.0 0 0 504.25 840.61   L 504.25 837.39   A 0.39 0.39 0.0 0 0 503.86 837.00   L 487.89 837.00   A 0.39 0.39 0.0 0 1 487.50 836.61   L 487.50 823.39   A 0.39 0.39 0.0 0 1 487.89 823.00   L 507.86 823.00   A 0.39 0.39 0.0 0 0 508.25 822.61   L 508.25 818.39   A 0.39 0.39 0.0 0 0 507.86 818.00   L 482.53 818.00   A 0.39 0.39 0.0 0 0 482.14 818.39   L 482.08 860.61   A 0.39 0.39 0.0 0 0 482.47 861.00   L 507.86 861.00   A 0.39 0.39 0.0 0 0 508.25 860.61   L 508.25 856.39   A 0.39 0.39 0.0 0 0 507.86 856.00   L 487.89 856.00"/>
<path stroke="#7d7d7d" vector-effect="non-scaling-stroke" d="   M 561.06 856.00   A 0.56 0.56 0.0 0 1 560.50 855.44   L 560.50 818.56   A 0.56 0.56 0.0 0 0 559.94 818.00   L 555.62 818.00   A 0.56 0.56 0.0 0 0 555.06 818.56   L 555.05 860.44   A 0.56 0.56 0.0 0 0 555.61 861.00   L 578.52 861.00   A 0.56 0.56 0.0 0 0 579.08 860.42   L 578.96 856.54   A 0.56 0.56 0.0 0 0 578.40 856.00   L 561.06 856.00"/>
<path stroke="#7d7d7d" vector-effect="non-scaling-stroke" d="   M 635.87 838.35   L 653.27 818.81   Q 653.65 818.39 653.11 818.22   Q 648.87 816.92 646.08 820.06   Q 639.59 827.38 633.16 834.77   C 631.28 836.94 629.72 837.61 626.96 836.86   Q 626.50 836.73 626.50 836.25   L 626.50 818.50   Q 626.50 818.00 626.00 818.00   L 621.87 818.00   Q 621.25 818.00 621.25 818.63   L 621.25 860.37   Q 621.25 861.00 621.88 861.00   L 626.02 861.00   Q 626.54 861.00 626.54 860.48   L 626.48 841.77   A 0.68 0.68 0.0 0 1 627.03 841.10   C 629.77 840.54 631.48 840.72 633.45 842.95   Q 640.31 850.72 646.93 858.72   C 649.04 861.27 651.24 861.61 654.25 860.83   Q 654.82 860.68 654.44 860.23   Q 646.23 850.53 638.18 840.82   Q 637.45 839.93 635.94 838.90   Q 635.59 838.66 635.87 838.35"/>
<path stroke="#7d7d7d" vector-effect="non-scaling-stroke" d="   M 699.96 841.34   A 0.34 0.34 0.0 0 1 700.30 841.00   L 716.28 841.00   A 0.34 0.34 0.0 0 0 716.62 840.64   L 716.43 837.32   A 0.34 0.34 0.0 0 0 716.09 837.00   L 700.36 837.00   A 0.34 0.34 0.0 0 1 700.02 836.66   L 699.96 823.34   A 0.34 0.34 0.0 0 1 700.30 823.00   L 720.21 823.00   A 0.34 0.34 0.0 0 0 720.55 822.65   L 720.47 818.33   A 0.34 0.34 0.0 0 0 720.13 818.00   L 694.84 818.00   A 0.34 0.34 0.0 0 0 694.50 818.34   L 694.50 860.66   A 0.34 0.34 0.0 0 0 694.84 861.00   L 720.27 861.00   A 0.34 0.34 0.0 0 0 720.61 860.65   L 720.45 856.33   A 0.34 0.34 0.0 0 0 720.11 856.00   L 700.35 856.00   A 0.34 0.34 0.0 0 1 700.01 855.66   L 699.96 841.34"/>
<path stroke="#7d7d7d" vector-effect="non-scaling-stroke" d="   M 198.10 914.96   C 198.08 929.31 220.44 922.70 218.34 934.97   C 217.10 942.16 208.08 942.08 203.00 939.15   Q 201.18 938.10 199.10 936.94   A 0.66 0.66 0.0 0 0 198.23 937.15   L 196.43 939.85   Q 196.16 940.26 196.52 940.58   C 204.55 947.89 221.37 948.55 223.45 935.25   C 225.30 923.45 213.38 922.78 206.49 919.53   C 201.01 916.95 202.67 909.57 208.01 908.28   Q 214.34 906.74 219.84 911.12   A 0.64 0.64 0.0 0 0 220.80 910.93   L 222.46 908.03   Q 222.72 907.57 222.31 907.24   C 214.17 900.60 198.13 901.66 198.10 914.96"/>
<path stroke="#7d7d7d" vector-effect="non-scaling-stroke" d="   M 271.42 916.70   C 275.99 906.61 287.40 905.62 296.12 911.58   A 0.64 0.64 0.0 0 0 296.98 911.44   L 298.92 908.88   Q 299.26 908.44 298.83 908.09   C 288.35 899.55 272.26 902.22 266.59 914.46   C 256.42 936.41 280.15 955.84 299.36 940.53   A 0.99 0.99 0.0 0 0 299.44 939.06   L 297.45 937.07   A 0.76 0.76 0.0 0 0 296.39 937.06   C 287.37 945.54 273.60 940.81 270.47 929.26   Q 268.70 922.72 271.42 916.70"/>
<path stroke="#7d7d7d" vector-effect="non-scaling-stroke" d="   M 340.25 926.36   A 0.36 0.36 0.0 0 1 340.61 926.00   L 363.39 926.00   A 0.36 0.36 0.0 0 1 363.75 926.36   L 363.75 945.64   A 0.36 0.36 0.0 0 0 364.11 946.00   L 368.89 946.00   A 0.36 0.36 0.0 0 0 369.25 945.64   L 369.25 903.36   A 0.36 0.36 0.0 0 0 368.89 903.00   L 364.11 903.00   A 0.36 0.36 0.0 0 0 363.75 903.36   L 363.75 921.64   A 0.36 0.36 0.0 0 1 363.39 922.00   L 340.61 922.00   A 0.36 0.36 0.0 0 1 340.25 921.64   L 340.25 903.36   A 0.36 0.36 0.0 0 0 339.89 903.00   L 335.11 903.00   A 0.36 0.36 0.0 0 0 334.75 903.36   L 334.75 945.64   A 0.36 0.36 0.0 0 0 335.11 946.00   L 339.89 946.00   A 0.36 0.36 0.0 0 0 340.25 945.64   L 340.25 926.36"/>
<path stroke="#7d7d7d" vector-effect="non-scaling-stroke" d="   M 416.98 941.00   A 0.48 0.48 0.0 0 1 416.50 940.52   L 416.50 926.48   A 0.48 0.48 0.0 0 1 416.98 926.00   L 432.92 926.00   A 0.48 0.48 0.0 0 0 433.40 925.48   L 433.17 922.44   A 0.48 0.48 0.0 0 0 432.69 922.00   L 416.98 922.00   A 0.48 0.48 0.0 0 1 416.50 921.52   L 416.50 908.48   A 0.48 0.48 0.0 0 1 416.98 908.00   L 436.73 908.00   A 0.48 0.48 0.0 0 0 437.20 907.54   L 437.33 903.50   A 0.48 0.48 0.0 0 0 436.85 903.00   L 411.74 903.00   A 0.48 0.48 0.0 0 0 411.26 903.48   L 411.24 945.52   A 0.48 0.48 0.0 0 0 411.72 946.00   L 436.73 946.00   A 0.48 0.48 0.0 0 0 437.21 945.54   L 437.35 941.50   A 0.48 0.48 0.0 0 0 436.87 941.00   L 416.98 941.00"/>
<path stroke="#7d7d7d" vector-effect="non-scaling-stroke" d="   M 496.4635 903.5953   A 0.60 0.60 0.0 0 0 495.8625 902.9963   L 491.6025 903.0038   A 0.60 0.60 0.0 0 0 491.0035 903.6048   L 491.0765 945.3847   A 0.60 0.60 0.0 0 0 491.6775 945.9837   L 495.9375 945.9762   A 0.60 0.60 0.0 0 0 496.5365 945.3752   L 496.4635 903.5953"/>
<path stroke="#7d7d7d" vector-effect="non-scaling-stroke" d="   M 549.47 934.04   C 554.80 947.33 573.10 949.80 582.69 939.97   Q 583.14 939.51 582.68 939.06   L 580.70 937.07   A 0.76 0.76 0.0 0 0 579.67 937.04   Q 573.51 942.37 565.23 940.75   C 554.79 938.71 551.50 927.95 553.78 918.99   C 556.70 907.51 570.01 904.82 579.07 911.54   A 0.71 0.69 -51.0 0 0 580.01 911.43   L 582.17 908.92   Q 582.61 908.42 582.08 908.02   C 563.20 893.57 540.75 912.31 549.47 934.04"/>
<path stroke="#7d7d7d" vector-effect="non-scaling-stroke" d="   M 646.80 926.00   A 0.45 0.45 0.0 0 1 647.25 926.45   L 647.25 945.55   A 0.45 0.45 0.0 0 0 647.70 946.00   L 652.06 946.00   A 0.45 0.45 0.0 0 0 652.51 945.55   L 652.51 903.46   A 0.45 0.45 0.0 0 0 652.06 903.01   L 647.70 902.99   A 0.45 0.45 0.0 0 0 647.25 903.44   L 647.25 921.55   A 0.45 0.45 0.0 0 1 646.80 922.00   L 623.97 922.00   A 0.45 0.45 0.0 0 1 623.52 921.55   L 623.49 903.45   A 0.45 0.45 0.0 0 0 623.04 903.00   L 618.70 903.00   A 0.45 0.45 0.0 0 0 618.25 903.45   L 618.25 945.55   A 0.45 0.45 0.0 0 0 618.70 946.00   L 623.05 946.00   A 0.45 0.45 0.0 0 0 623.50 945.55   L 623.50 926.45   A 0.45 0.45 0.0 0 1 623.95 926.00   L 646.80 926.00"/>
<path stroke="#7d7d7d" vector-effect="non-scaling-stroke" d="   M 700.38 922.00   A 0.39 0.39 0.0 0 1 699.99 921.61   L 699.96 908.39   A 0.39 0.39 0.0 0 1 700.35 908.00   L 720.17 908.00   A 0.39 0.39 0.0 0 0 720.56 907.61   L 720.51 903.39   A 0.39 0.39 0.0 0 0 720.12 903.00   L 694.89 903.00   A 0.39 0.39 0.0 0 0 694.50 903.39   L 694.50 945.61   A 0.39 0.39 0.0 0 0 694.89 946.00   L 720.17 946.00   A 0.39 0.39 0.0 0 0 720.56 945.61   L 720.51 941.39   A 0.39 0.39 0.0 0 0 720.12 941.00   L 700.39 941.00   A 0.39 0.39 0.0 0 1 700.00 940.61   L 700.00 926.39   A 0.39 0.39 0.0 0 1 700.39 926.00   L 716.21 926.00   A 0.39 0.39 0.0 0 0 716.60 925.59   L 716.44 922.37   A 0.39 0.39 0.0 0 0 716.05 922.00   L 700.38 922.00"/>
<path stroke="#7d7d7d" vector-effect="non-scaling-stroke" d="   M 789.50 935.75   Q 789.50 936.81 788.85 935.97   Q 776.82 920.30 764.71 904.53   C 763.41 902.84 762.09 902.68 760.13 903.08   Q 759.75 903.16 759.75 903.54   L 759.75 945.50   Q 759.75 946.00 760.25 946.00   L 763.76 946.00   Q 764.51 946.00 764.51 945.24   L 764.47 913.31   A 0.31 0.31 0.0 0 1 765.02 913.12   Q 777.44 928.80 789.41 944.84   Q 790.92 946.87 793.87 945.77   Q 794.25 945.64 794.25 945.23   L 794.25 903.50   Q 794.25 903.00 793.75 903.00   L 790.28 903.00   Q 789.50 903.00 789.50 903.78   L 789.50 935.75"/>
<path stroke="#7d7d7d" vector-effect="non-scaling-stroke" d="   M 847.8400 946.1200   A 21.61 21.18 90.0 0 0 869.0200 924.5100   A 21.61 21.18 90.0 0 0 847.8400 902.9000   A 21.61 21.18 90.0 0 0 826.6600 924.5100   A 21.61 21.18 90.0 0 0 847.8400 946.1200"/>
<path stroke="#7d7d7d" vector-effect="non-scaling-stroke" d="   M 908.35 920.42   C 912.88 926.53 921.72 924.82 925.70 929.70   C 929.38 934.22 925.45 940.31 920.23 940.94   Q 913.39 941.78 908.08 936.97   A 0.78 0.78 0.0 0 0 906.93 937.08   L 904.97 939.63   Q 904.56 940.18 905.07 940.64   C 911.98 946.86 924.72 948.79 930.13 939.73   C 932.22 936.22 932.95 930.64 930.26 927.02   C 926.01 921.29 916.74 922.62 912.54 917.47   C 909.42 913.65 913.17 909.22 917.00 908.23   C 921.18 907.16 924.68 908.65 928.44 911.04   A 0.66 0.65 -59.3 0 0 929.37 910.80   L 930.93 907.96   Q 931.16 907.55 930.80 907.24   Q 924.44 901.98 916.55 903.45   C 908.51 904.94 903.43 913.78 908.35 920.42"/>
<path stroke="#7d7d7d" vector-effect="non-scaling-stroke" d="   M 986.26 908.00   A 0.49 0.49 0.0 0 1 986.75 908.49   L 986.75 945.51   A 0.49 0.49 0.0 0 0 987.24 946.00   L 991.78 946.00   A 0.49 0.49 0.0 0 0 992.27 945.51   L 992.24 908.49   A 0.49 0.49 0.0 0 1 992.73 908.00   L 1005.76 908.00   A 0.49 0.49 0.0 0 0 1006.25 907.51   L 1006.25 903.49   A 0.49 0.49 0.0 0 0 1005.76 903.00   L 973.24 903.00   A 0.49 0.49 0.0 0 0 972.75 903.49   L 972.75 907.51   A 0.49 0.49 0.0 0 0 973.24 908.00   L 986.26 908.00"/>
<path stroke="#7d7d7d" vector-effect="non-scaling-stroke" d="   M 922.50 267.27   A 0.27 0.27 0.0 0 0 922.23 267.00   L 273.27 267.00   A 0.27 0.27 0.0 0 0 273.00 267.27   L 273.00 701.73   A 0.27 0.27 0.0 0 0 273.27 702.00   L 922.23 702.00   A 0.27 0.27 0.0 0 0 922.50 701.73   L 922.50 267.27"/>
<path stroke="#7d7d7d" vector-effect="non-scaling-stroke" d="   M 660.60 458.54   C 678.92 481.95 707.48 492.98 734.82 501.66   Q 755.22 508.14 775.49 515.00   C 792.63 520.80 809.82 529.61 819.95 544.33   C 828.63 556.95 829.55 573.70 826.73 588.52   C 820.87 619.32 797.53 638.53 767.26 643.03   Q 725.41 649.25 690.34 628.99   C 681.48 623.87 670.03 614.63 662.19 609.32   C 650.46 601.36 643.60 607.35 637.43 617.45   Q 631.47 627.19 625.59 636.87   A 0.74 0.73 38.9 0 0 625.69 637.76   C 651.18 664.80 685.34 681.69 722.50 686.72   C 781.55 694.71 845.63 673.90 868.67 614.03   Q 879.79 585.15 876.99 554.15   C 873.59 516.50 849.74 491.72 816.56 477.36   C 793.08 467.19 769.99 460.05 746.60 451.83   C 723.11 443.57 694.95 429.49 691.58 401.51   C 686.46 358.97 719.93 335.86 758.00 334.31   C 784.97 333.20 806.87 340.50 828.17 355.60   C 832.41 358.61 837.89 363.02 842.96 363.25   C 852.41 363.66 855.00 357.48 859.43 349.13   Q 864.18 340.17 868.62 330.93   Q 868.86 330.45 868.46 330.08   C 837.85 301.44 801.45 290.43 759.95 290.44   C 698.05 290.46 642.04 331.48 641.90 397.50   C 641.85 419.71 646.78 440.88 660.60 458.54"/>
<path stroke="#7d7d7d" vector-effect="non-scaling-stroke" d="   M 395.75 508.56   A 0.31 0.31 0.0 0 1 396.06 508.25   L 547.19 508.25   A 0.31 0.31 0.0 0 0 547.50 507.94   L 547.50 467.06   A 0.31 0.31 0.0 0 0 547.19 466.75   L 396.06 466.75   A 0.31 0.31 0.0 0 1 395.75 466.44   L 395.75 337.81   A 0.31 0.31 0.0 0 1 396.06 337.50   L 582.69 337.50   A 0.31 0.31 0.0 0 0 583.00 337.19   L 583.00 294.81   A 0.31 0.31 0.0 0 0 582.69 294.50   L 343.31 294.50   A 0.31 0.31 0.0 0 0 343.00 294.81   L 343.00 683.69   A 0.31 0.31 0.0 0 0 343.31 684.00   L 582.76 684.00   A 0.31 0.31 0.0 0 0 583.07 683.69   L 583.33 641.31   A 0.31 0.31 0.0 0 0 583.02 641.00   L 396.06 641.00   A 0.31 0.31 0.0 0 1 395.75 640.69   L 395.75 508.56"/>
<path stroke="#7d7d7d" vector-effect="non-scaling-stroke" d="   M 863.0527 922.1195   A 13.87 13.87 0.0 0 0 849.2555 908.1771   L 846.6356 908.1634   A 13.87 13.87 0.0 0 0 832.6931 921.9606   L 832.6673 926.9005   A 13.87 13.87 0.0 0 0 846.4645 940.8429   L 849.0844 940.8566   A 13.87 13.87 0.0 0 0 863.0269 927.0594   L 863.0527 922.1195"/>
</g>

<path fill="#171717" d="   M 935.50 714.48   A 0.27 0.27 0.0 0 1 935.23 714.75   L 260.77 714.75   A 0.27 0.27 0.0 0 1 260.50 714.48   L 260.50 254.52   A 0.27 0.27 0.0 0 1 260.77 254.25   L 935.23 254.25   A 0.27 0.27 0.0 0 1 935.50 254.52   L 935.50 714.48   Z   M 922.50 267.27   A 0.27 0.27 0.0 0 0 922.23 267.00   L 273.27 267.00   A 0.27 0.27 0.0 0 0 273.00 267.27   L 273.00 701.73   A 0.27 0.27 0.0 0 0 273.27 702.00   L 922.23 702.00   A 0.27 0.27 0.0 0 0 922.50 701.73   L 922.50 267.27   Z"/>

<path fill="#171717" d="   M 660.60 458.54   C 646.78 440.88 641.85 419.71 641.90 397.50   C 642.04 331.48 698.05 290.46 759.95 290.44   C 801.45 290.43 837.85 301.44 868.46 330.08   Q 868.86 330.45 868.62 330.93   Q 864.18 340.17 859.43 349.13   C 855.00 357.48 852.41 363.66 842.96 363.25   C 837.89 363.02 832.41 358.61 828.17 355.60   C 806.87 340.50 784.97 333.20 758.00 334.31   C 719.93 335.86 686.46 358.97 691.58 401.51   C 694.95 429.49 723.11 443.57 746.60 451.83   C 769.99 460.05 793.08 467.19 816.56 477.36   C 849.74 491.72 873.59 516.50 876.99 554.15   Q 879.79 585.15 868.67 614.03   C 845.63 673.90 781.55 694.71 722.50 686.72   C 685.34 681.69 651.18 664.80 625.69 637.76   A 0.74 0.73 38.9 0 1 625.59 636.87   Q 631.47 627.19 637.43 617.45   C 643.60 607.35 650.46 601.36 662.19 609.32   C 670.03 614.63 681.48 623.87 690.34 628.99   Q 725.41 649.25 767.26 643.03   C 797.53 638.53 820.87 619.32 826.73 588.52   C 829.55 573.70 828.63 556.95 819.95 544.33   C 809.82 529.61 792.63 520.80 775.49 515.00   Q 755.22 508.14 734.82 501.66   C 707.48 492.98 678.92 481.95 660.60 458.54   Z"/>
<path fill="#171717" d="   M 395.75 508.56   L 395.75 640.69   A 0.31 0.31 0.0 0 0 396.06 641.00   L 583.02 641.00   A 0.31 0.31 0.0 0 1 583.33 641.31   L 583.07 683.69   A 0.31 0.31 0.0 0 1 582.76 684.00   L 343.31 684.00   A 0.31 0.31 0.0 0 1 343.00 683.69   L 343.00 294.81   A 0.31 0.31 0.0 0 1 343.31 294.50   L 582.69 294.50   A 0.31 0.31 0.0 0 1 583.00 294.81   L 583.00 337.19   A 0.31 0.31 0.0 0 1 582.69 337.50   L 396.06 337.50   A 0.31 0.31 0.0 0 0 395.75 337.81   L 395.75 466.44   A 0.31 0.31 0.0 0 0 396.06 466.75   L 547.19 466.75   A 0.31 0.31 0.0 0 1 547.50 467.06   L 547.50 507.94   A 0.31 0.31 0.0 0 1 547.19 508.25   L 396.06 508.25   A 0.31 0.31 0.0 0 0 395.75 508.56   Z"/>
<path fill="#171717" d="   M 487.89 856.00   L 507.86 856.00   A 0.39 0.39 0.0 0 1 508.25 856.39   L 508.25 860.61   A 0.39 0.39 0.0 0 1 507.86 861.00   L 482.47 861.00   A 0.39 0.39 0.0 0 1 482.08 860.61   L 482.14 818.39   A 0.39 0.39 0.0 0 1 482.53 818.00   L 507.86 818.00   A 0.39 0.39 0.0 0 1 508.25 818.39   L 508.25 822.61   A 0.39 0.39 0.0 0 1 507.86 823.00   L 487.89 823.00   A 0.39 0.39 0.0 0 0 487.50 823.39   L 487.50 836.61   A 0.39 0.39 0.0 0 0 487.89 837.00   L 503.86 837.00   A 0.39 0.39 0.0 0 1 504.25 837.39   L 504.25 840.61   A 0.39 0.39 0.0 0 1 503.86 841.00   L 487.89 841.00   A 0.39 0.39 0.0 0 0 487.50 841.39   L 487.50 855.61   A 0.39 0.39 0.0 0 0 487.89 856.00   Z"/>
<path fill="#171717" d="   M 561.06 856.00   L 578.40 856.00   A 0.56 0.56 0.0 0 1 578.96 856.54   L 579.08 860.42   A 0.56 0.56 0.0 0 1 578.52 861.00   L 555.61 861.00   A 0.56 0.56 0.0 0 1 555.05 860.44   L 555.06 818.56   A 0.56 0.56 0.0 0 1 555.62 818.00   L 559.94 818.00   A 0.56 0.56 0.0 0 1 560.50 818.56   L 560.50 855.44   A 0.56 0.56 0.0 0 0 561.06 856.00   Z"/>
<path fill="#171717" d="   M 635.94 838.90   Q 637.45 839.93 638.18 840.82   Q 646.23 850.53 654.44 860.23   Q 654.82 860.68 654.25 860.83   C 651.24 861.61 649.04 861.27 646.93 858.72   Q 640.31 850.72 633.45 842.95   C 631.48 840.72 629.77 840.54 627.03 841.10   A 0.68 0.68 0.0 0 0 626.48 841.77   L 626.54 860.48   Q 626.54 861.00 626.02 861.00   L 621.88 861.00   Q 621.25 861.00 621.25 860.37   L 621.25 818.63   Q 621.25 818.00 621.87 818.00   L 626.00 818.00   Q 626.50 818.00 626.50 818.50   L 626.50 836.25   Q 626.50 836.73 626.96 836.86   C 629.72 837.61 631.28 836.94 633.16 834.77   Q 639.59 827.38 646.08 820.06   Q 648.87 816.92 653.11 818.22   Q 653.65 818.39 653.27 818.81   L 635.87 838.35   Q 635.59 838.66 635.94 838.90   Z"/>
<path fill="#171717" d="   M 699.96 841.34   L 700.01 855.66   A 0.34 0.34 0.0 0 0 700.35 856.00   L 720.11 856.00   A 0.34 0.34 0.0 0 1 720.45 856.33   L 720.61 860.65   A 0.34 0.34 0.0 0 1 720.27 861.00   L 694.84 861.00   A 0.34 0.34 0.0 0 1 694.50 860.66   L 694.50 818.34   A 0.34 0.34 0.0 0 1 694.84 818.00   L 720.13 818.00   A 0.34 0.34 0.0 0 1 720.47 818.33   L 720.55 822.65   A 0.34 0.34 0.0 0 1 720.21 823.00   L 700.30 823.00   A 0.34 0.34 0.0 0 0 699.96 823.34   L 700.02 836.66   A 0.34 0.34 0.0 0 0 700.36 837.00   L 716.09 837.00   A 0.34 0.34 0.0 0 1 716.43 837.32   L 716.62 840.64   A 0.34 0.34 0.0 0 1 716.28 841.00   L 700.30 841.00   A 0.34 0.34 0.0 0 0 699.96 841.34   Z"/>
<path fill="#171717" d="   M 218.34 934.97   C 220.44 922.70 198.08 929.31 198.10 914.96   C 198.13 901.66 214.17 900.60 222.31 907.24   Q 222.72 907.57 222.46 908.03   L 220.80 910.93   A 0.64 0.64 0.0 0 1 219.84 911.12   Q 214.34 906.74 208.01 908.28   C 202.67 909.57 201.01 916.95 206.49 919.53   C 213.38 922.78 225.30 923.45 223.45 935.25   C 221.37 948.55 204.55 947.89 196.52 940.58   Q 196.16 940.26 196.43 939.85   L 198.23 937.15   A 0.66 0.66 0.0 0 1 199.10 936.94   Q 201.18 938.10 203.00 939.15   C 208.08 942.08 217.10 942.16 218.34 934.97   Z"/>
<path fill="#171717" d="   M 271.42 916.70   Q 268.70 922.72 270.47 929.26   C 273.60 940.81 287.37 945.54 296.39 937.06   A 0.76 0.76 0.0 0 1 297.45 937.07   L 299.44 939.06   A 0.99 0.99 0.0 0 1 299.36 940.53   C 280.15 955.84 256.42 936.41 266.59 914.46   C 272.26 902.22 288.35 899.55 298.83 908.09   Q 299.26 908.44 298.92 908.88   L 296.98 911.44   A 0.64 0.64 0.0 0 1 296.12 911.58   C 287.40 905.62 275.99 906.61 271.42 916.70   Z"/>
<path fill="#171717" d="   M 340.25 926.36   L 340.25 945.64   A 0.36 0.36 0.0 0 1 339.89 946.00   L 335.11 946.00   A 0.36 0.36 0.0 0 1 334.75 945.64   L 334.75 903.36   A 0.36 0.36 0.0 0 1 335.11 903.00   L 339.89 903.00   A 0.36 0.36 0.0 0 1 340.25 903.36   L 340.25 921.64   A 0.36 0.36 0.0 0 0 340.61 922.00   L 363.39 922.00   A 0.36 0.36 0.0 0 0 363.75 921.64   L 363.75 903.36   A 0.36 0.36 0.0 0 1 364.11 903.00   L 368.89 903.00   A 0.36 0.36 0.0 0 1 369.25 903.36   L 369.25 945.64   A 0.36 0.36 0.0 0 1 368.89 946.00   L 364.11 946.00   A 0.36 0.36 0.0 0 1 363.75 945.64   L 363.75 926.36   A 0.36 0.36 0.0 0 0 363.39 926.00   L 340.61 926.00   A 0.36 0.36 0.0 0 0 340.25 926.36   Z"/>
<path fill="#171717" d="   M 416.98 941.00   L 436.87 941.00   A 0.48 0.48 0.0 0 1 437.35 941.50   L 437.21 945.54   A 0.48 0.48 0.0 0 1 436.73 946.00   L 411.72 946.00   A 0.48 0.48 0.0 0 1 411.24 945.52   L 411.26 903.48   A 0.48 0.48 0.0 0 1 411.74 903.00   L 436.85 903.00   A 0.48 0.48 0.0 0 1 437.33 903.50   L 437.20 907.54   A 0.48 0.48 0.0 0 1 436.73 908.00   L 416.98 908.00   A 0.48 0.48 0.0 0 0 416.50 908.48   L 416.50 921.52   A 0.48 0.48 0.0 0 0 416.98 922.00   L 432.69 922.00   A 0.48 0.48 0.0 0 1 433.17 922.44   L 433.40 925.48   A 0.48 0.48 0.0 0 1 432.92 926.00   L 416.98 926.00   A 0.48 0.48 0.0 0 0 416.50 926.48   L 416.50 940.52   A 0.48 0.48 0.0 0 0 416.98 941.00   Z"/>
<rect fill="#171717" x="-2.73" y="-21.49" transform="translate(493.77,924.49) rotate(-0.1)" width="5.46" height="42.98" rx="0.60"/>
<path fill="#171717" d="   M 582.69 939.97   C 573.10 949.80 554.80 947.33 549.47 934.04   C 540.75 912.31 563.20 893.57 582.08 908.02   Q 582.61 908.42 582.17 908.92   L 580.01 911.43   A 0.71 0.69 -51.0 0 1 579.07 911.54   C 570.01 904.82 556.70 907.51 553.78 918.99   C 551.50 927.95 554.79 938.71 565.23 940.75   Q 573.51 942.37 579.67 937.04   A 0.76 0.76 0.0 0 1 580.70 937.07   L 582.68 939.06   Q 583.14 939.51 582.69 939.97   Z"/>
<path fill="#171717" d="   M 646.80 926.00   L 623.95 926.00   A 0.45 0.45 0.0 0 0 623.50 926.45   L 623.50 945.55   A 0.45 0.45 0.0 0 1 623.05 946.00   L 618.70 946.00   A 0.45 0.45 0.0 0 1 618.25 945.55   L 618.25 903.45   A 0.45 0.45 0.0 0 1 618.70 903.00   L 623.04 903.00   A 0.45 0.45 0.0 0 1 623.49 903.45   L 623.52 921.55   A 0.45 0.45 0.0 0 0 623.97 922.00   L 646.80 922.00   A 0.45 0.45 0.0 0 0 647.25 921.55   L 647.25 903.44   A 0.45 0.45 0.0 0 1 647.70 902.99   L 652.06 903.01   A 0.45 0.45 0.0 0 1 652.51 903.46   L 652.51 945.55   A 0.45 0.45 0.0 0 1 652.06 946.00   L 647.70 946.00   A 0.45 0.45 0.0 0 1 647.25 945.55   L 647.25 926.45   A 0.45 0.45 0.0 0 0 646.80 926.00   Z"/>
<path fill="#171717" d="   M 700.38 922.00   L 716.05 922.00   A 0.39 0.39 0.0 0 1 716.44 922.37   L 716.60 925.59   A 0.39 0.39 0.0 0 1 716.21 926.00   L 700.39 926.00   A 0.39 0.39 0.0 0 0 700.00 926.39   L 700.00 940.61   A 0.39 0.39 0.0 0 0 700.39 941.00   L 720.12 941.00   A 0.39 0.39 0.0 0 1 720.51 941.39   L 720.56 945.61   A 0.39 0.39 0.0 0 1 720.17 946.00   L 694.89 946.00   A 0.39 0.39 0.0 0 1 694.50 945.61   L 694.50 903.39   A 0.39 0.39 0.0 0 1 694.89 903.00   L 720.12 903.00   A 0.39 0.39 0.0 0 1 720.51 903.39   L 720.56 907.61   A 0.39 0.39 0.0 0 1 720.17 908.00   L 700.35 908.00   A 0.39 0.39 0.0 0 0 699.96 908.39   L 699.99 921.61   A 0.39 0.39 0.0 0 0 700.38 922.00   Z"/>
<path fill="#171717" d="   M 789.50 935.75   L 789.50 903.78   Q 789.50 903.00 790.28 903.00   L 793.75 903.00   Q 794.25 903.00 794.25 903.50   L 794.25 945.23   Q 794.25 945.64 793.87 945.77   Q 790.92 946.87 789.41 944.84   Q 777.44 928.80 765.02 913.12   A 0.31 0.31 0.0 0 0 764.47 913.31   L 764.51 945.24   Q 764.51 946.00 763.76 946.00   L 760.25 946.00   Q 759.75 946.00 759.75 945.50   L 759.75 903.54   Q 759.75 903.16 760.13 903.08   C 762.09 902.68 763.41 902.84 764.71 904.53   Q 776.82 920.30 788.85 935.97   Q 789.50 936.81 789.50 935.75   Z"/>
<path fill="#171717" d="   M 847.8400 946.1200   A 21.61 21.18 90.0 0 1 826.6600 924.5100   A 21.61 21.18 90.0 0 1 847.8400 902.9000   A 21.61 21.18 90.0 0 1 869.0200 924.5100   A 21.61 21.18 90.0 0 1 847.8400 946.1200   Z   M 863.0527 922.1195   A 13.87 13.87 0.0 0 0 849.2555 908.1771   L 846.6356 908.1634   A 13.87 13.87 0.0 0 0 832.6931 921.9606   L 832.6673 926.9005   A 13.87 13.87 0.0 0 0 846.4645 940.8429   L 849.0844 940.8566   A 13.87 13.87 0.0 0 0 863.0269 927.0594   L 863.0527 922.1195   Z"/>
<path fill="#171717" d="   M 908.35 920.42   C 903.43 913.78 908.51 904.94 916.55 903.45   Q 924.44 901.98 930.80 907.24   Q 931.16 907.55 930.93 907.96   L 929.37 910.80   A 0.66 0.65 -59.3 0 1 928.44 911.04   C 924.68 908.65 921.18 907.16 917.00 908.23   C 913.17 909.22 909.42 913.65 912.54 917.47   C 916.74 922.62 926.01 921.29 930.26 927.02   C 932.95 930.64 932.22 936.22 930.13 939.73   C 924.72 948.79 911.98 946.86 905.07 940.64   Q 904.56 940.18 904.97 939.63   L 906.93 937.08   A 0.78 0.78 0.0 0 1 908.08 936.97   Q 913.39 941.78 920.23 940.94   C 925.45 940.31 929.38 934.22 925.70 929.70   C 921.72 924.82 912.88 926.53 908.35 920.42   Z"/>
<path fill="#171717" d="   M 986.26 908.00   L 973.24 908.00   A 0.49 0.49 0.0 0 1 972.75 907.51   L 972.75 903.49   A 0.49 0.49 0.0 0 1 973.24 903.00   L 1005.76 903.00   A 0.49 0.49 0.0 0 1 1006.25 903.49   L 1006.25 907.51   A 0.49 0.49 0.0 0 1 1005.76 908.00   L 992.73 908.00   A 0.49 0.49 0.0 0 0 992.24 908.49   L 992.27 945.51   A 0.49 0.49 0.0 0 1 991.78 946.00   L 987.24 946.00   A 0.49 0.49 0.0 0 1 986.75 945.51   L 986.75 908.49   A 0.49 0.49 0.0 0 0 986.26 908.00   Z"/>

</svg>
